<svg id="Capa_1" data-name="Capa 1" xmlns="http://www.w3.org/2000/svg" viewBox="0 0 341.64 454.34"><defs><style>.cls-1{fill:#3c2216;}.cls-2{fill:#080000;}.cls-3{fill:#f9f6fa;}.cls-4{fill:#fdd9a1;}.cls-5{fill:#f7f6fa;}.cls-6{fill:#d4d0d3;}.cls-7{fill:#503435;}.cls-8{fill:#6a4d48;}.cls-9{fill:#f7f6fb;}.cls-10{fill:#e9b57d;}.cls-11{fill:#ebb47b;}.cls-12{fill:#ebb47a;}.cls-13{fill:#fed8a1;}.cls-14{fill:#f9f5fa;}.cls-15{fill:#fbefe2;}.cls-16{fill:#f7f6f9;}.cls-17{fill:#ebb57d;}.cls-18{fill:#9d7f7c;}.cls-19{fill:#d4d1d3;}.cls-20{fill:#d4d0d1;}.cls-21{fill:#f3f1f4;}.cls-22{fill:#daaf82;}.cls-23{fill:#3c1d0c;}.cls-24{fill:#e8b47f;}.cls-25{fill:#3b2014;}.cls-26{fill:#3c1d0b;}.cls-27{fill:#3d1f12;}.cls-28{fill:#3e2313;}.cls-29{fill:#3e1e09;}.cls-30{fill:#3d2114;}.cls-31{fill:#3e1c08;}.cls-32{fill:#3e1f09;}.cls-33{fill:#f4d2a6;}.cls-34{fill:#dccac1;}.cls-35{fill:#d0beb5;}</style></defs><path class="cls-1" d="M179.47,606.22a5.93,5.93,0,0,1-3.23,3c-6.78,2.1-13.86,3.24-20.08-.9-8.13-5.4-15.77-11.55-23.59-17.41a19.56,19.56,0,0,1-7.75-13.67c-1.16-8.8-2.27-17.61-3.38-26.41-.72-5.65.56-10.72,4.52-14.94a10,10,0,0,0,2-3.94c14.32-43.74,34.34-84.77,58.59-123.81,2.15-3.48,4.38-6.91,6.59-10.35a38.65,38.65,0,0,1,20.4-15.85q23.57-8.29,47.19-16.36a5.38,5.38,0,0,0,3.28-2.75c1.72-3.27,4.62-6.29,5.14-9.69s-3.44-6.07-5.14-9.24C254,325.07,246,305.64,244.85,284a119.42,119.42,0,0,1,.2-12.26c.31-5.74-1.68-11-4.39-15.92-3.62-6.59-3.6-7.78,1.13-13.49a2.6,2.6,0,0,0,.33-2.51c-.92-4.9-1.53-9.9-2.91-14.67a27.84,27.84,0,0,1,1.54-19.55c8.68-19.8,22.11-35.35,42-44.33,17.9-8,34.89-5,50.52,6.35a28.33,28.33,0,0,0,11.37,5.27c22,4.47,35.55,23.67,32.78,46.17-.84,6.82-2.44,13.54-3.65,20.31a30.32,30.32,0,0,0-.3,3.58c-.12,2.46-.08,4.26,3.43,4.69,5,.63,8.95,7.41,9,14.05,0,4.73-1.59,9-3.71,13.1-2.63,5.13-5.23,10.16-6.81,15.85a19.56,19.56,0,0,1-13.74,13.86,3.8,3.8,0,0,0-1.39.46c-1.1.92-.4,9.45.84,10.38s2.26,1.65,3.45,2.38a19.23,19.23,0,0,1,8.36,10.91c2.08,6.46,4.31,12.86,6.39,19.32a5.18,5.18,0,0,0,2.76,3.26c18.52,9.76,36.85,19.89,55.56,29.29,9.94,5,15.17,12.31,16.75,23.27,3.87,26.76,7.53,53.52,8.3,80.59.17,5.76.74,11.57-1.34,17.19-.73,2-1.36,4.17-2.87,5.53-3.41,3.07-3.63,7.06-4,11.12q-2.42,27.27-4.88,54.53c-.64,7-1.24,14.11-1.91,21.16-.53,5.44-2.77,9.71-8.35,11.52-11.45.68-22.92.26-34.38.29-26,.08-52.07,0-78.1.06-1,0-2.19-.57-3.06.47a24.69,24.69,0,0,1-19.89,3.85c-9.53-2.18-19.08-2.23-28.74-1.75-6.3.31-12.74,1-18.67-2.17-.61-.82-1.48-.41-2.21-.41q-36.18,0-72.36,0C181.12,605.74,180.14,605.27,179.47,606.22Z" transform="translate(-121.25 -156.73)"/><path class="cls-2" d="M323.81,606.22c.92-1.43,2.37-.76,3.55-.76q53-.06,106,.06c2,0,4-1.42,6-.12-1.76.93-3.67.79-5.56.79Z" transform="translate(-121.25 -156.73)"/><path class="cls-2" d="M179.47,606.22c.51-1.09,1.52-.78,2.36-.78q36.71,0,73.42,0a9.37,9.37,0,0,1,1.38.2s.05.18,0,.26a1.16,1.16,0,0,1-.15.26Z" transform="translate(-121.25 -156.73)"/><path class="cls-3" d="M265,439.43c.3-3.77,2.13-7,3.62-10.34q9.54-21.46,19.18-42.88c2.59-1.81,5.61-1.95,8.49-1.56a26.4,26.4,0,0,1,15.83,7.69c4.13,4.18,8.15,8.46,13.41,11.35,8.36,4.59,16.28,4.09,24.1-1.42,8-5.63,14.5-12.73,20.78-20.09a46,46,0,0,1,5.11-5.43,19.86,19.86,0,0,1,22.1-2.18q14.81,7.79,29.73,15.36c.71.36,3,.33,1.21,2.23-6.68,1.79-13.38,3.55-20.05,5.39-3.63,1-4.14,3.23-1.49,6,2.21.93,4.23-.42,6.34-.6,7.26-.62,14.29.36,20.45,4.19,5.91,3.67,8,9.71,8.7,16.55,1.55,14.46,3.33,28.91,4.08,43.42a54.23,54.23,0,0,1-14.55,40.32c-10.4,11.46-22.18,21.46-34.35,31a481.25,481.25,0,0,1-41,28.55c-6.4,4-12.81,8.11-19.48,11.71-10.2,5.51-20.7,6.19-30.87.48-19.91-11.16-21-41.11,1-54.42a5.93,5.93,0,0,1,4-.94c3.2,1.38,6.41,2.73,9.59,4.14,1.94.86,3.77,1.14,4.8-1.17s-.39-3.46-2.33-4.31-3.78-1.77-5.67-2.66c-1.45-1.25-.64-2.58,0-3.78,5.1-9.61,9.86-19.38,14.79-29.08s10-19.31,14.65-29.12c2.53-5.29,5.5-10.38,8.09-15.67,1-2.13,2-4.31,3.18-6.38,1.12-1.84,2.21-3.7,3.37-5.51,1.31-2,1.09-3.91-.92-5.16s-3.66-.23-4.81,1.54c-4.79,7.33-9.58,14.67-14.27,22.07a7.71,7.71,0,0,1-4.25,3.41c-10,3.46-19.88,7.05-29.8,10.65a26.15,26.15,0,0,1-20-.58c-5.69-2.47-10,.73-9.35,7q1.47,15,3,30c.7,2.2-.29,3.63-2.11,4.69-.78.45-1.55.9-2.35,1.32-4.58,2.38-6.51,1.55-7.57-3.53a174.52,174.52,0,0,1-2.71-22.2c-.76-9.81-1-19.65-1.73-29.46A105.32,105.32,0,0,1,265,439.43Z" transform="translate(-121.25 -156.73)"/><path class="cls-4" d="M268.05,215l8.43,7.67c5.58,4.92,11.92,7.88,19.53,7.64,4.12-.14,7.73-1.82,11.24-3.74a98.44,98.44,0,0,1,13-6.13,17.6,17.6,0,0,1,7.36-.87,6.41,6.41,0,0,1,5.93,5.38,20.35,20.35,0,0,1-.7,10.61,54.76,54.76,0,0,0-1.94,6.6c-.8,4.41-.66,8.66,1.45,12.81,3.5,6.88,5,14.48,7.53,21.73a41.09,41.09,0,0,0,4,8.65c1.62,2.56,3.47,2.93,6.15,1.56a16.68,16.68,0,0,0,9-11.7c.39-1.75.73-3.51,1.28-5.21,2.6-6.26,5.84-12,11.93-15.6a1.61,1.61,0,0,1,2.25.87c1.59,3,3.17,6,3.35,9.48a6.38,6.38,0,0,1-1.16,3.95c-.68,1-1.37,1.12-1.92-.14-.37-1.25-.15-2.58-.46-3.85-.65-2.66-2.14-3.91-5.24-3.94,2.88,1.08,4.36,2.93,4.06,6-.2,2.06-.92,3.67-2.85,4.54-4.74,2.12-5.42,3.82-4.71,9.94a20.11,20.11,0,0,1,.26,5.36c-.47,3-2.44,3.84-4.81,2s-1.23.39-1.43,1.1c-.11,1-.33,1.9-1.59,1a10.86,10.86,0,0,0-1.88-1.41h0c-2.87-.88-4-.22-5,2.74a27.3,27.3,0,0,0-.76,10.09c.24,3.44-.65,5.91-3.9,7.58-2.36,1.22-3.75,3.52-4.74,6-2.28,5.66-4.83,11.2-8.95,15.78-5.1,5.67-10.75,10.65-18.23,13.07a4.64,4.64,0,0,1-4.78-.7c-2.11-1.8-4.17-1.44-6.29,0a67,67,0,0,0-9.66,8c-5.82,5.72-12,4.09-16.58-1.75a15.35,15.35,0,0,1-3.18-6.3,10.63,10.63,0,0,1-.35-1.09c-.69-3.42-.68-3.41-3.86-2.06-.14.06-.43-.23-.66-.36.4-1.19-.36-2.1-.77-3.09-2.79-6.8-5.46-13.65-7.76-20.62-.62-1.91-1.76-4.21.6-6,1.09-.22,2.29-.36,1.56-2-1.81-4.11.19-7.25,2.66-10.26,1.38-1.69,3.42-2.66,5-4.45-4.41.83-9.05,6.57-9.41,11.27-.09,1.16.66,2.83-1.35,3.26-1.93-3.62-2.7-7.49-3.46-11.51-.94-5-.43-10.11-1.93-15-.79-2.6-.28-5.39.08-8,.73-5.37.16-10.91,2-16.15,1.31-1.1,2.69-.35,4,0,5.22,1.42,10.37.58,15.56-.25a74.34,74.34,0,0,0-11.28-3.69,7.53,7.53,0,0,0-4.68.43c-1,.41-2,1.18-3,0a6.71,6.71,0,0,1-.51-3.22q0-13,0-26a10.6,10.6,0,0,1,4.91-9.33C263.6,214,265.72,214.38,268.05,215Z" transform="translate(-121.25 -156.73)"/><path class="cls-5" d="M204.48,486.88a69.89,69.89,0,0,1-3.29-25.63c1.18-21.39,2.55-42.76,3.77-64.15a4.86,4.86,0,0,1,2.23-4.2,35.53,35.53,0,0,1,8.7-4.54q15.54-5.28,31.08-10.61c2.2-.37,1.44,1,1,1.87-.92,1.77-2.28,3.26-3.35,4.94a11,11,0,0,0-2,5.84c0,2.73,1,3.86,3.72,3.94a24.52,24.52,0,0,0,8.15-1.66c5.88-1.87,11.55-4.38,17.63-5.63a11.23,11.23,0,0,1,5.61-.09c1.13.36,2.42.71,1.87,2.42-5.73,13.65-11.8,27.15-18.06,40.56a46.57,46.57,0,0,0-6.58,13.94c-5.08,16.63-7.37,33.87-11.23,50.76-.57,2.53-1.1,5.08-1.88,7.54-1,3.1-2.45,6-5.46,7.57-4,2.15-7.77.85-11.35-1.12-6.27-3.43-11.43-8.27-16.36-13.36C206.34,492.91,205.59,489.82,204.48,486.88Z" transform="translate(-121.25 -156.73)"/><path class="cls-6" d="M311.35,523.86c-11.92,4.81-20.46,17.34-19.27,31,1.14,13.09,8.42,22.66,20.78,26.27a29.46,29.46,0,0,0,23.92-3c11.06-6.66,22.2-13.23,32.92-20.4a391.47,391.47,0,0,0,40.85-30.93c8.37-7.35,16.9-14.57,23.76-23.39a54.9,54.9,0,0,0,11.14-27.54c1.1-8.92-.52-17.61-1.23-26.39-.53-6.53-1.08-13.06-1.92-19.55-.6-4.69-.44-9.53-2.29-14a16.42,16.42,0,0,0-8.94-9.39,38.62,38.62,0,0,0-22.2-2.38,1.54,1.54,0,0,1-1.84-.61c6.49-.64,12.57-3,18.88-4.45,2.52-.58,5-1.34,7.53-1.93,6.9-1.64,13,2.21,14.2,9.18q4.46,26.72,6.76,53.7c.82,9.44,1,18.92,1.6,28.37.51,8.64-2.33,15.21-9.1,20.88-33.28,27.86-67.21,54.82-104,78q-11.38,7.17-23.2,13.59a21.93,21.93,0,0,1-15.33,2.31,83.21,83.21,0,0,0-8.26-1.38c-2.11-.2-3.08-1.24-3.82-3.1-8.74-22.06-12.94-44.75-9.76-68.51,0-.19,0-.39.05-.59.71-5.23.72-5.21,5.79-6.61,3.83-1,7.76-1.84,11.35-3.68a2,2,0,0,1,2-.12C304.89,520.79,308.13,522.31,311.35,523.86Z" transform="translate(-121.25 -156.73)"/><path class="cls-5" d="M142.32,589.24c-1.95-1.39-3.95-2.7-5.82-4.18a12.77,12.77,0,0,1-4.88-8.63c-1.14-9-2.29-18-3.39-27a10.74,10.74,0,0,1,3.76-9.91q7.2-6.32,14.38-12.64c2.26-2,2.73-4,1.19-5.62-2-2.07-3.92-1.2-5.73.48a22.88,22.88,0,0,1-3.87,2.94,551,551,0,0,1,42.59-93c1-1.07,1.55-.62,1.64.63s-.11,2.19-.12,3.29c-.14,13.37-.25,26.73,1.78,40,1.44,9.38,3.13,18.7,7.59,27.25,1.69,3.24,1.41,3.81-1.46,5.92-6.75,5-12.62,10.72-16,18.57a49.75,49.75,0,0,0-3.22,10.87c-.33,1.79-1.19,2.68-3.07,2.38-8.77-1.43-15.52,5-18.57,12.13-3.88,9-5.28,18.55-5.35,28.31a37.24,37.24,0,0,1-.24,7.16C143.37,588.78,143.13,589.37,142.32,589.24Z" transform="translate(-121.25 -156.73)"/><path class="cls-7" d="M354.31,183.18c1.66-.31,2.58,1,3.59,1.84,7.22,6,12,13.34,13.29,23,1.08,8.28-.28,16.12-2.27,24a39.31,39.31,0,0,0-1.06,16.51,1.56,1.56,0,0,1-.62,1.73A46,46,0,0,0,354,269.34a58.16,58.16,0,0,1-2.66,5.31c-2-6-3.21-11.49-5.9-16.45q-1.27-2.34-2.54-4.69a14.2,14.2,0,0,1-1.1-10.87c1.53-6,3.37-12.19,2.23-18.47-1.31-7.16-3.44-14-9.71-18.79-4.36-3.29-9.23-2.74-14-2.12-5.79.75-10.12,4.75-14.95,7.59s-9.14,6.26-14.54,8.08a12.53,12.53,0,0,1-11.76-1.86,22.06,22.06,0,0,1-5.59-5.76,2.65,2.65,0,0,1,2.84,0c5.32,2.25,10.19.72,14.84-1.85a111.18,111.18,0,0,0,13.35-9,48.57,48.57,0,0,1,14.91-8c5.33-1.66,10.65-.73,15.84.87,7.66,2.36,11.35,1.07,15.7-5.59C352,186.12,352.61,184.24,354.31,183.18Z" transform="translate(-121.25 -156.73)"/><path class="cls-3" d="M441.8,580.35c-.32,4.26-.73,8.51-.95,12.78a6.12,6.12,0,0,1-3.72,5.81,6.3,6.3,0,0,1-2.37.18q-35.89,0-71.81,0c-.86,0-1.78.28-2.71-.4.23-1.4,1.4-2,2.37-2.82a477.53,477.53,0,0,1,51.73-36.58,219.81,219.81,0,0,1,26.2-13.74,16.31,16.31,0,0,1,2.25-.81c1.66-.42,2.6,0,2.09,1.92-.82,3.09-.65,6.29-.95,9.43C443.16,564.18,442.36,572.26,441.8,580.35Z" transform="translate(-121.25 -156.73)"/><path class="cls-6" d="M142.32,589.24c.72-.61.56-1.45.54-2.23a91.48,91.48,0,0,1,1.9-23.7c1.65-7.06,3.72-14,9.37-19.21,3.94-3.63,8.43-5.18,13.66-4.3,1.48.25,1.86.05,2.09-1.43a42.13,42.13,0,0,1,16.81-28.06c1.33-1,2.43-2.25,4.06-2.95,1.21-.51,1.45-1.55.64-3-5.19-9-6.86-19.09-8.42-29.21-2-13-1.78-26.17-1.73-39.29a9.91,9.91,0,0,1,.28-3.55c.43-1.22-.55-.57-1-.65a239,239,0,0,1,17.16-27.26c-.55,9.2-1.12,18.4-1.66,27.6-.59,10.25-1.29,20.51-1.7,30.78-.6,15,3.61,29,9.83,42.43.87,1.88,2.41,4.08,2,5.75s-3.39,1.52-5.18,2.33c-12.63,5.73-19.73,15.4-21,29.23-.12,1.25-.84,1.69-1.66,2.25-5.61,3.81-11.19,7.65-16.82,11.43-6,4-9.1,9.61-9.09,16.87,0,7.68,0,15.36,0,23.76A87.51,87.51,0,0,1,142.32,589.24Z" transform="translate(-121.25 -156.73)"/><path class="cls-8" d="M354.31,183.18a29.66,29.66,0,0,1-5.1,8.31c-3.33,4-7.75,4.55-12.47,3.07s-9.3-2.6-14.21-1.89c-6.78,1-12.26,4.64-17.68,8.48-5.88,4.16-11.43,8.8-18.41,11.23-4.6,1.59-8.73.31-13-1.07-2-1.67-3.82-3.46-5.88-5-5-3.72-9.51-5-15.11.21-.91-1.05-.37-2.09.1-3.06,5.57-11.64,13.28-21.5,24.16-28.63,11.77-7.72,24.62-9.17,38.13-6.21,6,1.32,12.06,2.7,17.28,6.29.14.1.37,0,.56-.08s.25-.05.29,0c3.12,3.61,7.73,3,11.72,4.16C348.12,180,351.49,181,354.31,183.18Z" transform="translate(-121.25 -156.73)"/><path class="cls-6" d="M441.8,580.35c-.37-6.79,1-13.46,1.41-20.21.27-4.65,1-9.27,1.36-13.91.17-1.85-.95-.91-1.72-.67a79.4,79.4,0,0,0-11.1,5.08A305.68,305.68,0,0,0,402,568.12c-13.72,9-26.81,18.84-39.67,29-.52.41-1,.9-1.86,1.7h74c.89,0,1.79.07,2.68.11-.84.74-1.89.53-2.86.53q-47.72,0-95.44-.05c-.53,0-1.21.29-1.73-.61,39.14-23.58,75-51.64,110.54-81.41-.26,3.5-.42,6.32-.68,9.13q-2.35,26.21-4.75,52.41A8.33,8.33,0,0,1,441.8,580.35Z" transform="translate(-121.25 -156.73)"/><path class="cls-4" d="M220.84,520.32c6.37,3,12.74,6,19.13,9a2.07,2.07,0,0,1,1.44,2.49,121.09,121.09,0,0,0,3.46,48.47c-1.26.53-2.07-.4-3-1-11-7-21.8-14.28-31.68-22.82-4.05-3.49-8.15-7-11-11.66a11.66,11.66,0,0,1,.57-12.33c3.54-4.64,8.33-7.66,13.55-10C215.69,521.52,217.88,519.49,220.84,520.32Z" transform="translate(-121.25 -156.73)"/><path class="cls-6" d="M428.57,392.16c.1-.44.44-.84-.29-1.18-10.89-5-21.32-11-32.09-16.26a18.22,18.22,0,0,0-22.26,4.65c-5.23,6-10.34,12.13-16.24,17.49-4.71,4.29-9.6,8.47-15.93,10.17-7.9,2.11-14.6-.91-20.86-5.42-3.83-2.76-6.67-6.59-10.27-9.56-6.63-5.47-14-8.71-22.82-5.84,0-.67.23-1.26.93-1.32,4.38-.31,8.59-1.8,13-1.87a18.81,18.81,0,0,1,11.17,3.68q7.24,5,14.54,10c5.72,3.91,11.66,3.27,16.34-1.9q15.65-17.28,31.2-34.66c3-3.31,2.95-3.35,6.72-1.35l54.67,29c.77.41,1.52.85,3.13,1.76Z" transform="translate(-121.25 -156.73)"/><path class="cls-6" d="M204.48,486.88c2.6,7.41,8.68,11.93,14.31,16.67,3.59,3,7.63,5.66,12.51,6.49,4.16.7,8.42-2.79,9.82-8.21,2.95-11.34,5-22.87,7.17-34.37,1.7-9,4.13-17.76,6.65-26.52,1.13-3.91,3.31-7.34,5.27-10.85.36-.64.83-.28,1.28-.15-4.47,10.81-3.57,22.34-4.4,33.62-1.28,17.5-2.24,35-3.28,52.56-.1,1.67-.35,2.73-2.35,3a6.08,6.08,0,0,0-4.52,3.17c-1,2-2.15,1.81-3.84,1-7.26-3.53-14.57-7-21.86-10.43-1.17-.56-2.34-1.5-3.54-1.55-4-.14-5.17-3-6.26-6C209.23,499.12,205.86,493.38,204.48,486.88Z" transform="translate(-121.25 -156.73)"/><path class="cls-5" d="M263.08,600.14c-8.72-10.48-12.72-22.88-14.62-36.1a133.74,133.74,0,0,1,0-34.62c.29-2.51,1.39-3.84,4-3.8,4,.08,8,.12,12,.17.9,1.05.62,2.25.44,3.43-3.35,22.7.25,44.64,7.27,66.2,2.48,7.63,1,6-4.5,6.11C266,601.55,264.26,601.78,263.08,600.14Z" transform="translate(-121.25 -156.73)"/><path class="cls-9" d="M320,383.33c-5.29-3.6-10.6-7.14-18.15-7.16,6.55-4.35,12.4-8.26,18.28-12.13q15.75-10.34,31.53-20.62a18,18,0,0,0,7.94-11.15c.82-.31-.06-1.87,1.1-1.72.87.11,1,1.17,1.16,1.93a32,32,0,0,1-.8,14.46c-1.91,6.28-5.72,11.38-9.91,16.19-7.26,8.35-16.21,14.66-25.48,20.57C323.5,385.08,321.81,384.61,320,383.33Z" transform="translate(-121.25 -156.73)"/><path class="cls-6" d="M263.08,600.14c2.65,1.69,5.6,1,8.44,1,2.06,0,1.09-1.42.78-2.33a191.83,191.83,0,0,1-5.63-19.49,194.55,194.55,0,0,1-3.52-23.82c-1-10,0-19.82,1.32-29.67,3.49,0,7,0,10.46-.13,1.69-.06,2.27.34,2,2.19-3.72,24.5.12,48.06,9.1,70.94.72,1.81.6,2.37-1.52,2.39-5.88.07-11.75.39-17.63.53C265.43,601.76,263.76,602.05,263.08,600.14Z" transform="translate(-121.25 -156.73)"/><path class="cls-10" d="M274,343.72a29,29,0,0,0,5.69,7.78c4.52,4.2,8.63,4.14,13.28-.06,3.45-3.11,6.79-6.37,10.82-8.79,2.2-1.33,4.15-1.63,6.1.36,1.35,1.39,2.89,1.39,4.65.69a43.76,43.76,0,0,0,13.15-8.31,49.41,49.41,0,0,0,13.11-19.85,13.19,13.19,0,0,1,6.51-7.49c1.88-.91,2.19-2.14,2.22-4,.08-4.53-.77-9.17,1.36-13.52,1.4-2.87,2.43-3.18,5.16-1.28-3.52.16-4.69,1.24-4,5.28,1.83,11.22.54,22.49,1,33.72a10,10,0,0,1-4.85,9.34q-29.13,19.13-58.26,38.25c-1.55,1-2.32,1.16-2.78-1-.66-3-1.55-6-2.41-8.95-.38-1.32-.48-2.11,1.36-1.79a19.27,19.27,0,0,0,13.22-2.36c2.69-1.51,6.12-1.63,9.15-2.6,18.64-6,32.72-17.1,40.14-35.69a27.86,27.86,0,0,0,1.32-4.28c.41-1.81-.28-3.27-2.12-3.7s-3.06.47-3.58,2.31c-3.79,13.29-12.3,22.81-23.93,29.8A67.29,67.29,0,0,1,305.1,354c.57-1.83,1-3.3,1.5-4.74s.42-2.89-1-3.7-2.09.7-2.78,1.52c-2.38,2.82-4.61,5.78-7.62,8-7.54,5.51-16.28,3.05-19.76-5.63A14.27,14.27,0,0,1,274,343.72Z" transform="translate(-121.25 -156.73)"/><path class="cls-11" d="M360.26,270c0,7.69-2.62,13.84-9.77,17.57-3.47,1.81-5.53,1.25-7.66-2.13-2.79-4.44-4.05-9.49-5.73-14.34-1.77-5.13-2.71-10.59-5.3-15.39-3.21-5.93-2.63-11.81-.6-17.78,1.42-4.17,2.46-8.3,1.59-12.77a6,6,0,0,0-5.14-4.84c-7.65-.56-13.69,3.58-19.9,7-5.25,2.86-10.74,4.89-16.52,3.65-5.56-1.21-11.48-2.6-14.75-8.27,7.08,4.23,14,3.17,21.06-.27,5.51-2.68,10.31-6.41,15.42-9.67a29.13,29.13,0,0,1,9-4c5.2-1.23,9.6.42,12.37,5,4.43,7.3,5.19,15.14,2.88,23.32a45.07,45.07,0,0,0-1.59,7.91,18.81,18.81,0,0,0,2.85,12.23c4,6.42,5.67,13.8,7.72,21,.69,2.39.64,5.6,4,5.92s4.28-2.73,5.61-5C357.53,276.16,358.31,272.78,360.26,270Z" transform="translate(-121.25 -156.73)"/><path class="cls-6" d="M320,383.33c2.58,1.58,4.51.12,6.63-1.22,8.6-5.45,16.78-11.43,23.58-19.08,5.18-5.84,9.77-12.1,11-20.09a24.86,24.86,0,0,0-.25-10.65c-.11-.37.32-1.15-.47-1.07-.33,0-.59.68-.89,1,.06-2.38.1-4.77.18-7.15,0-.56-.26-1.28.44-1.59s1.1.28,1.57.62a11.15,11.15,0,0,1,4.19,5.66c2.28,6.79,4.53,13.59,6.89,20.35a2.5,2.5,0,0,1-.58,2.91q-16.79,18.63-33.53,37.32c-1.8,2-4.06,2.78-6.42,1.29C328.14,389,324.1,386.13,320,383.33Z" transform="translate(-121.25 -156.73)"/><path class="cls-12" d="M220.84,520.32c-8,2.81-15.7,6.16-20.92,13.36-1.66,2.28-1.87,7.68-.46,10.12,2.84,4.93,7.22,8.45,11.3,12.2,6.14,5.66,13.2,10.15,19.87,15.13,4.51,3.36,9.48,6.11,14.24,9.14,1.91,4.34,3.3,8.9,5.3,13.38-5.17-3.93-10.37-7.82-15.51-11.78q-22.14-17.05-44.25-34.14c-3.69-2.85-4.39-4.85-3.17-9.33a28.76,28.76,0,0,1,23.9-21.1C215,516.74,217.86,518.51,220.84,520.32Z" transform="translate(-121.25 -156.73)"/><path class="cls-13" d="M206.44,568.82c11.36,8.37,22.49,17,33.53,25.81-.33,1.68-1.75,1.4-2.83,1.43-9.37.26-18.73,1.1-28.1.59-4.36-.25-8.77-.27-13-1.46-5-1.39-6-3.29-4.18-8.16,1.67-4.44,4.74-8.06,7.46-11.85a43.78,43.78,0,0,1,3.55-4C203.8,570.06,204.69,568.72,206.44,568.82Z" transform="translate(-121.25 -156.73)"/><path class="cls-6" d="M330.93,461.07a6.37,6.37,0,0,1,3.68-1.21c-2.88,4.47-5.59,8.68-8.32,12.88q-11,16.92-22,33.84c-3.17,4.9-7.79,7.51-13.34,8.82-1.54.37-1.92-.21-2-1.59-.39-4.76-.86-9.51-1.3-14.27.88-2.12,2.72-3.4,4.33-4.84,11.45-10.29,23.28-20.16,34.58-30.61C327.91,462.84,329.7,462.39,330.93,461.07Z" transform="translate(-121.25 -156.73)"/><path class="cls-6" d="M265,439.43c1.26,5,.81,10.07,1.11,15.09.7,11.77,1.19,23.54,2.44,35.28a97.65,97.65,0,0,0,2.27,14c.57,2.25,1.81,2.65,3.74,1.61,1.66-.88,3.35-1.72,5-2.64a3.81,3.81,0,0,0,1.76-3.53q.94,8.3,1.91,16.6c.12,1-.17,1.74-1.3,2a24.42,24.42,0,0,1-5,1c-5,0-10-.11-15,0-2,0-2.49-.58-2.36-2.55.76-11.13,1.38-22.28,2.06-33.42q1.17-18.94,2.38-37.9C264.22,443.09,264.12,441.17,265,439.43Z" transform="translate(-121.25 -156.73)"/><path class="cls-14" d="M330.93,461.07c-2.49,2.34-4.92,4.75-7.48,7-5.58,4.93-11.25,9.76-16.84,14.67-6.34,5.57-12.64,11.19-19,16.79q-1.06-9.92-2.14-19.82c-.42-4-.82-7.91-1.27-12.23a47.32,47.32,0,0,0,10.26,2.79c6.19.72,12.06-.52,17.85-2.69C318.49,465.29,324.73,463.23,330.93,461.07Z" transform="translate(-121.25 -156.73)"/><path class="cls-15" d="M256.84,257.35c-.64,6.86-1.83,13.73-1.75,20.58a67.56,67.56,0,0,0,2,16.61c.45,1.69.17,3.56.31,5.35.23,3.05,2.19,5.53,2.91,8.43,1.62.27,1.19,1.49,1.17,2.53-1.57,1.55-.79,3.51-.29,4.94,2.59,7.31,5.48,14.5,8.29,21.73.39,1,1.3,2-.3,2.69C263,330,258.72,319,255.06,307.74a91.91,91.91,0,0,1-3.37-41.63,148.48,148.48,0,0,0,1.08-36.6,29.38,29.38,0,0,1,2.38-15.76c2.47-5.33,4.76-5.85,9.41-2.37,1.38,1,2.26,2.47,3.49,3.6-.35.16-.7.49-1,.47-6-.22-9.68,3.26-9.7,9.24q0,14.82,0,29.64A3.55,3.55,0,0,1,256.84,257.35Z" transform="translate(-121.25 -156.73)"/><path class="cls-16" d="M160.82,603.05c-1.44-.67-1.51-1.94-1.5-3.29,0-9.08,0-18.16,0-27.25A12.12,12.12,0,0,1,165.13,562c5.13-3.46,10.29-6.87,15.34-10.43,1.62-1.15,2.76-1.55,4.21.23a29.25,29.25,0,0,0,3.73,3.36c1.49,1.35,0,1.84-.78,2.36-3.76,2.42-7.34,5.13-11.14,7.49a12.52,12.52,0,0,0-6.44,11.91c.25,7.65-.05,15.31,0,23,0,3.07-.32,3.5-3.32,3.44C164.76,603.26,162.76,603.64,160.82,603.05Z" transform="translate(-121.25 -156.73)"/><path class="cls-6" d="M358.45,435.83c-1.09,5.17-3.84,9.67-6.26,14.21-3.54,6.63-6.69,13.45-10.18,20.1-4,7.64-7.8,15.38-11.73,23.07-4,7.94-8.17,15.85-12.22,23.8a3.06,3.06,0,0,0-.32,2.85c-3.29-1.4-6.57-2.83-9.86-4.2-1-.42-1.52-.74-.7-1.91,17.55-25.33,33.69-51.58,50.64-77.29A4.17,4.17,0,0,1,358.45,435.83Z" transform="translate(-121.25 -156.73)"/><path class="cls-6" d="M160.82,603.05l4.76,0c3.84,0,3.71,0,3.66-3.78q-.15-12.62,0-25.23c.06-4.41,2.84-7.28,6.32-9.45,4.34-2.71,8.21-6.11,12.83-8.38.14-.07,0-.69,0-1.06,3,1.22,5.1,3.68,7.68,5.48,1.33.92.19,1.52-.42,2q-4.26,3.54-8.58,7a21.4,21.4,0,0,0-7.74,12.09c-1.45,6.11-3.26,12.14-4.68,18.26-.65,2.75-2.06,3.94-4.8,3.72C166.85,603.45,163.74,604.56,160.82,603.05Z" transform="translate(-121.25 -156.73)"/><path class="cls-17" d="M206.44,568.82a65.31,65.31,0,0,0-13.33,17.27,9.79,9.79,0,0,0-.66,1.65c-1.41,4.28-.78,5.16,3.47,6.55,4,1.3,8.06,1.14,12.06,1.43,10.12.73,20.26-.44,30.39-.48a1.8,1.8,0,0,0,1.6-.61,28.62,28.62,0,0,1,5.64,4.22c-.68,1-1.55.55-2.26.55-19.62,0-39.25,0-58.87.07-2.16,0-2.78-.39-2.13-2.61,1.31-4.49,2.5-9,3.53-13.58a14.33,14.33,0,0,1,5.32-8.38q4.11-3.23,8.18-6.51C202.89,565.55,202.88,565.54,206.44,568.82Z" transform="translate(-121.25 -156.73)"/><path class="cls-18" d="M332.72,174.84c.63,1.41-.16,1.06-.85.64-6.43-3.85-13.57-5.68-20.85-6.76-9.37-1.39-18.55-.86-27.41,3.29-14.57,6.83-23.8,18.51-30.65,32.52a9.27,9.27,0,0,0-.47,2c-4,6.23-4.71,9.2-5.94,22.2-1.05-5.18-3.52-10.12-1.92-15.7,2.78-9.67,8-18,14.31-25.63,7.31-8.87,15.8-16.4,26.53-20.82C302.86,159.4,318.57,163,332.72,174.84Z" transform="translate(-121.25 -156.73)"/><path class="cls-19" d="M279.55,389.38c-1.58-2.8-4.19-2.1-6.51-1.68-6.25,1.15-12.08,3.71-18.09,5.67-3.1,1-6.2,2.06-9.55,1.83-2.33-.17-3.56-1.32-3.73-3.72-.33-4.5,2.44-7.56,4.66-11,.42-.65,2.73-1.39.64-2.78l8-3,.42.51c-2.07,2.8-4.1,5.62-6.22,8.37-1.46,1.89-2.5,3.84-.48,5.84s3.91.88,5.83-.53c4.68-3.44,9.62-6.42,15.4-7.69a15.26,15.26,0,0,1,9.66.68c2.13.93,3,2.12,1.59,4.32C280.54,387.22,280.09,388.33,279.55,389.38Z" transform="translate(-121.25 -156.73)"/><path class="cls-10" d="M375.16,268.08c.26.19.14,1.35.73.51a5.23,5.23,0,0,0,1.06-3c-.24-4.26-1.41-8.21-4.76-11.18,2.95-1.68,4.53-1.32,6.13,1.46A12.56,12.56,0,0,1,379.45,266c-1.29,4.46-3.8,8.33-5.93,12.38a29.41,29.41,0,0,0-3.33,8.91c-.78,4.76-3.85,8-7.69,10.58-2.4,1.6-4.06.69-4.53-2.29-.34-2.19.32-4.68-1.91-6.3,1-.18,1.52.54,2.13,1.1s.79.22.89-.36c.13-.19.3-.32.48-.27,5.39,1.42,5.39,1.42,8-3,.65-2.54,1.59-5,1.59-7.7s2-4.63,3.25-6.84C373.14,270.69,373.42,268.89,375.16,268.08Z" transform="translate(-121.25 -156.73)"/><path class="cls-20" d="M270.94,364c.64-1,1.24-2,1.94-3,.48-.67.6-2,1.81-1.61a2.85,2.85,0,0,1,1.89,2.15c1.11,4.24,2.24,8.46,3.46,13.06l-5.35-.87c-2-1.5-1.85-4-2.73-6C271.45,366.51,271.43,365.18,270.94,364Z" transform="translate(-121.25 -156.73)"/><path class="cls-21" d="M270.94,364c1.37.17,1.15,1.27,1.4,2.19.71,2.53,1.56,5,2.35,7.53a44,44,0,0,0-11.39,2.36Z" transform="translate(-121.25 -156.73)"/><path class="cls-22" d="M246.7,258.16c-4.82-5.07-5.59-10-2-12.77C245.37,249.82,246,254,246.7,258.16Z" transform="translate(-121.25 -156.73)"/><path class="cls-23" d="M293.76,305.29c-1,.22-1.36,1.1-1.92,1.78-3.63,4.51-8.12,5-12.39,1.17a48.07,48.07,0,0,1-6.16-6.9A7.15,7.15,0,0,1,275,291c.87-.65,1.73-1.12,2.66-.21s.55,1.9-.28,2.84c-2.82,3.22-2.78,4.21.09,7.26,1.51,1.59,2.9,3.31,4.54,4.75,2.64,2.3,4.89,2.05,7.1-.91a7.55,7.55,0,0,1,6.29-3.34c2.19-.07,5.11.37,6-2.17,1-2.84-1.49-4.62-3.41-6.09-6.5-5-7.73-11.53-6-19a13.88,13.88,0,0,1,7.56-9.53c1.24-.64,2.78-1.91,3.9,0s-.79,2.33-1.83,3.14c-.51.61-1,1.19-1.61,1.75-6,5.88-6,13.8,0,19.63,1,1,2.12,1.81,3.07,2.82,2.43,2.56,3.65,5.57,2.43,9s-4.36,3.69-7.35,4.05C296.72,305.22,295.22,304.79,293.76,305.29Z" transform="translate(-121.25 -156.73)"/><path class="cls-23" d="M290.48,321.69a39.2,39.2,0,0,1-21.26-5.58,23.52,23.52,0,0,1-2.21-1.53c-1-.83-2.18-1.77-1-3.19,1-1.26,2.07-.48,3.09.29,6.85,5.16,14.69,7,23.09,6.61a54.59,54.59,0,0,0,19.05-4.73c.73-.32,1.46-.64,2.16-1,1.13-.57,2.19-.65,2.76.66s-.18,2.07-1.32,2.59A66.2,66.2,0,0,1,298.37,321,40.57,40.57,0,0,1,290.48,321.69Z" transform="translate(-121.25 -156.73)"/><path class="cls-24" d="M293.76,305.29c2.13-.34,4.29-.55,6.38-1,5-1.18,6.6-5.09,4.07-9.57-1.41-2.5-3.81-4-5.81-5.95-6.24-6-4.47-17.46,3.23-20.93-.59,2.4-1.31,4.77-1.74,7.19-1.18,6.64,2.58,11.3,6.52,15.86-1.69,2.48.22,4.16,1.32,6,.59,1,2.12,1.53,1.54,3.11C305.83,306.82,299.49,305.14,293.76,305.29Z" transform="translate(-121.25 -156.73)"/><path class="cls-25" d="M297.44,260.34c6.41-9.83,26.07-9.5,33.72.66a88,88,0,0,0-17-1.6C308.61,259.41,303.11,260.06,297.44,260.34Z" transform="translate(-121.25 -156.73)"/><path class="cls-26" d="M375.16,268.08q-1.21,2.12-2.44,4.23a2.33,2.33,0,0,1-1.2,1.25c-3.84,1.38-4.13,4.18-3.39,7.66.38,1.75.72,3.64-.16,5.42-1.62,5.48-4.61,6.6-8.89,3.33-.78-.56-.5-1.46-.67-2.2a1.27,1.27,0,0,1,.92-1.64,1.25,1.25,0,0,1,1.59,1c.39,1.21.91,2.37,2.48,1.94s1.74-1.75,1.81-3.1a33.41,33.41,0,0,0-.8-6.22c-.66-4.77.57-7.15,5-8.9,2.56-1,3.15-2.88,3-5.2-.12-2.11-1.13-3.59-3.5-3.68-.9,0-1.63-.39-1.45-1.44s1-1.06,1.86-1.09a5.55,5.55,0,0,1,5.63,4.8A26,26,0,0,1,375.16,268.08Z" transform="translate(-121.25 -156.73)"/><path class="cls-27" d="M256.84,257.35c.44-1-.76-2.17.46-3,4-2.6,8.07-1.76,12.18-.16,2.5,1,5.12,1.65,7.68,2.47.48.16,1,.36.95,1s-.53.8-1,.84C270.28,259,263.42,260.72,256.84,257.35Z" transform="translate(-121.25 -156.73)"/><path class="cls-28" d="M324.9,269.38c-2.49-.85-4.45-.74-6.33,1.54-1.53,1.85-5.32,1.68-6.71-.37-1.89-2.76-4-2.37-6.47-1.53l-1.58.51C308.46,262.57,318.68,262.49,324.9,269.38Z" transform="translate(-121.25 -156.73)"/><path class="cls-29" d="M309.27,300a24.79,24.79,0,0,1-4.37-6.48c-.65-1.57-.64-2.72,1.51-2.66a23.76,23.76,0,0,0,11.21,11.52c4,2,5.72,5.69,5.56,10.18,0,.93-.08,1.95-1.3,2s-1.36-1-1.31-1.93c.23-4.4-2.33-7-5.8-9C312.89,302.47,311.1,301.19,309.27,300Z" transform="translate(-121.25 -156.73)"/><path class="cls-30" d="M282.19,268.47c-3.07-1.5-5.18-1.93-7.56-.09-1.61,1.25-4.34,1.08-5.48-.58-2.11-3.06-4.5-2.93-7.69-1.38C265.82,259.42,276,260.36,282.19,268.47Z" transform="translate(-121.25 -156.73)"/><path class="cls-31" d="M289.64,327a39.7,39.7,0,0,1-13.18-2.27c-1-.35-2.43-.53-1.88-2.07.47-1.32,1.65-.72,2.56-.43a38.54,38.54,0,0,0,23.23.63c.9-.26,1.89-.48,2.24.69s-.56,1.51-1.48,1.8A36.94,36.94,0,0,1,289.64,327Z" transform="translate(-121.25 -156.73)"/><path class="cls-32" d="M261.47,310.85l-1.17-2.53a15.59,15.59,0,0,1,9.26-15.79c.73-.34,1.51-.81,2.08.13s0,1.66-.85,2.18a22.34,22.34,0,0,0-6,5.32c-2,2.62-2.84,5.46-1.05,8.58.38.66,1.06,1.3.37,2.13C263.25,311.94,262.36,311.14,261.47,310.85Z" transform="translate(-121.25 -156.73)"/><path class="cls-7" d="M332.64,188.4a2.3,2.3,0,0,1-2.47.74c-13.28-1-24.64,3.63-34.73,11.93a14.83,14.83,0,0,1-1.13,1c-.44.29-1,.42-1.34-.06s0-.72.22-1.06c5.95-8.95,13.72-14.77,25-14.77C323,186.16,327.88,186.2,332.64,188.4Z" transform="translate(-121.25 -156.73)"/><path class="cls-33" d="M368,286.64c-.17-1.75-.29-3.51-.54-5.26-.89-6.44-.91-6.43,5.29-9.07.78.61.14,1-.24,1.39a9.36,9.36,0,0,0-2.69,6.92c-.05,2.07-.84,4.13-1.31,6.19a.48.48,0,0,1-.27,0A1,1,0,0,1,368,286.64Z" transform="translate(-121.25 -156.73)"/><path class="cls-34" d="M314.33,266.85c-.11.82-.47,1.28-1.11,1.31a1.17,1.17,0,0,1-1.35-1.17c0-.82.66-1.11,1.39-1.11S314.15,266.46,314.33,266.85Z" transform="translate(-121.25 -156.73)"/><path class="cls-35" d="M269.61,265.8c-.83,0-1.33-.41-1.34-1.23a1,1,0,0,1,1.1-1.11,1.12,1.12,0,0,1,1.32,1.2C270.71,265.35,270.26,265.7,269.61,265.8Z" transform="translate(-121.25 -156.73)"/></svg>