<?xml version="1.0" encoding="utf-8"?>
<!-- Generator: Adobe Illustrator 25.2.1, SVG Export Plug-In . SVG Version: 6.00 Build 0)  -->
<svg version="1.1" id="Capa_1" xmlns="http://www.w3.org/2000/svg" xmlns:xlink="http://www.w3.org/1999/xlink" x="0px" y="0px"
	 viewBox="0 0 512 512" style="enable-background:new 0 0 512 512;" xml:space="preserve">
<style type="text/css">
	.st0{fill:#FFFFFF;}
</style>
<g id="_1">
	<path class="st0" d="M356.6,450H171.5c-22.6-0.1-40.8-18.3-40.9-40.9V120.7c0-8.3,6.7-15,15-15l0,0h237c8.3,0,15,6.7,15,15l0,0
		v288.4C397.5,431.7,379.2,450,356.6,450z M160.6,135.7v273.4c0,6,4.9,10.9,10.9,10.9h185.2c6,0,10.9-4.9,10.9-10.9V135.7H160.6z"/>
	<path class="st0" d="M327.1,135.7h-126c-8.3,0-15-6.7-15-15V93.4c0-24.7,20-44.7,44.7-44.7h66.5c24.7,0,44.7,20,44.7,44.7v27.3
		C342.1,128.9,335.3,135.7,327.1,135.7z M216.1,105.7h96V93.4c0-8.1-6.6-14.7-14.7-14.7h-66.5c-8.1,0-14.7,6.6-14.7,14.7
		L216.1,105.7z"/>
	<path class="st0" d="M264.1,392.6c-8.3,0-15-6.7-15-15V178.1c0-8.3,6.7-15,15-15s15,6.7,15,15v199.5
		C279.1,385.9,272.3,392.6,264.1,392.6z"/>
	<path class="st0" d="M209.9,392.6c-8.3,0-15-6.7-15-15V178.1c0-8.3,6.7-15,15-15s15,6.7,15,15v199.5
		C224.9,385.9,218.2,392.6,209.9,392.6z"/>
	<path class="st0" d="M318.2,392.6c-8.3,0-15-6.7-15-15V178.1c0-8.3,6.7-15,15-15s15,6.7,15,15v199.5
		C333.2,385.9,326.5,392.6,318.2,392.6z"/>
	<path class="st0" d="M405.8,135.7H122.3c-8.3,0-15-6.7-15-15s6.7-15,15-15h283.5c8.3,0,15,6.7,15,15S414.1,135.7,405.8,135.7z"/>
</g>
</svg>
